<svg width="137" height="28" viewBox="0 0 137 28" fill="none" xmlns="http://www.w3.org/2000/svg">
<path d="M23.0544 8.16211L12.0272 14.1352L1 8.16211V21.0272L12.0272 27.0002L23.0544 21.0272V8.16211Z" stroke="#388328" stroke-width="1.14866"/>
<path d="M8.92554 7.35703L12.0269 5.4043L15.2432 7.35703" stroke="#5FB74E" stroke-width="1.14866"/>
<path d="M4.56079 6.09466L11.9122 1.5L19.4934 6.09466" stroke="#5FB74E" stroke-width="1.14866"/>
<path d="M35.3817 20.1938C34.7154 20.1938 34.1025 20.0561 33.5429 19.7807C32.9921 19.5054 32.5436 19.1145 32.1971 18.6082L33.1965 17.6488C33.4807 17.9952 33.8271 18.2795 34.2358 18.5016C34.6533 18.7237 35.053 18.8347 35.435 18.8347C35.888 18.8347 36.2478 18.7281 36.5143 18.5149C36.7896 18.3017 36.9273 18.0219 36.9273 17.6755C36.9273 17.4267 36.8829 17.2224 36.7941 17.0625C36.7052 16.8938 36.5409 16.7294 36.3011 16.5695C36.0612 16.4007 35.6926 16.192 35.1951 15.9433C34.5378 15.6235 34.0181 15.3215 33.6362 15.0372C33.2542 14.753 32.9744 14.4509 32.7967 14.1311C32.6191 13.8114 32.5302 13.4427 32.5302 13.0252C32.5302 12.5455 32.6546 12.1236 32.9033 11.7594C33.1609 11.3863 33.5162 11.102 33.9693 10.9066C34.4223 10.7023 34.9464 10.6001 35.5416 10.6001C36.19 10.6001 36.7674 10.7289 37.2738 10.9866C37.789 11.2442 38.1665 11.595 38.4063 12.0392L37.3271 12.8387C37.1139 12.5633 36.8563 12.3501 36.5542 12.1991C36.2611 12.0392 35.9457 11.9592 35.6082 11.9592C35.1729 11.9592 34.8309 12.0525 34.5822 12.2391C34.3424 12.4167 34.2224 12.6699 34.2224 12.9986C34.2224 13.2029 34.2757 13.3805 34.3823 13.5315C34.4978 13.6737 34.6977 13.8336 34.9819 14.0112C35.2751 14.1889 35.7192 14.4198 36.3144 14.7041C37.1583 15.1038 37.749 15.5213 38.0866 15.9566C38.433 16.383 38.6062 16.9204 38.6062 17.5689C38.6062 18.093 38.473 18.5549 38.2065 18.9546C37.94 19.3455 37.5625 19.6519 37.0739 19.874C36.5853 20.0872 36.0213 20.1938 35.3817 20.1938ZM40.1911 10.1738H41.6968V14.2644C41.9011 13.9535 42.1942 13.7092 42.5762 13.5315C42.9582 13.3539 43.3712 13.265 43.8154 13.265C44.5793 13.265 45.1833 13.5182 45.6275 14.0245C46.0805 14.5309 46.307 15.2282 46.307 16.1165V20.0605H44.7881V16.1964C44.7881 15.6279 44.6681 15.1882 44.4283 14.8773C44.1973 14.5575 43.8687 14.3976 43.4423 14.3976C42.9182 14.3976 42.4962 14.5842 42.1764 14.9573C41.8567 15.3303 41.6968 15.8189 41.6968 16.423V20.0605H40.1911V10.1738ZM54.1346 17.289H49.4443C49.5954 18.3728 50.1861 18.9146 51.2165 18.9146C51.6074 18.9146 51.9538 18.8436 52.2558 18.7014C52.5578 18.5593 52.8377 18.3372 53.0953 18.0352L53.9214 18.8214C53.6638 19.2389 53.2818 19.572 52.7755 19.8207C52.278 20.0694 51.7317 20.1938 51.1366 20.1938C50.115 20.1938 49.32 19.8918 48.7515 19.2877C48.183 18.6748 47.8987 17.8265 47.8987 16.7427C47.8987 15.659 48.183 14.8107 48.7515 14.1978C49.3289 13.576 50.115 13.265 51.1099 13.265C52.0604 13.265 52.8021 13.5715 53.3351 14.1844C53.8681 14.7974 54.1346 15.6457 54.1346 16.7294V17.289ZM52.6822 16.1565C52.6822 15.6324 52.5401 15.2237 52.2558 14.9306C51.9716 14.6375 51.5763 14.4909 51.0699 14.4909C50.608 14.4909 50.2349 14.6464 49.9507 14.9573C49.6753 15.2593 49.5021 15.6857 49.431 16.2364H52.6822V16.1565ZM57.4947 20.1938C56.9529 20.1938 56.5398 20.0472 56.2556 19.7541C55.9802 19.4521 55.8425 19.0124 55.8425 18.435V10.1738H57.3615V18.4483C57.3615 18.6881 57.4104 18.8613 57.5081 18.9679C57.6058 19.0657 57.7657 19.1145 57.9877 19.1145C58.2098 19.1145 58.4541 19.0568 58.7206 18.9413L58.9471 19.7807C58.5651 20.0561 58.081 20.1938 57.4947 20.1938ZM60.6773 14.4376H59.5847V13.3983H60.6773V12.5855C60.6773 11.937 60.8772 11.4307 61.2769 11.0665C61.6767 10.6934 62.223 10.5069 62.9158 10.5069C63.2179 10.5069 63.5021 10.5557 63.7686 10.6534C64.0351 10.7423 64.2572 10.8711 64.4348 11.0399L63.9019 11.9459C63.7953 11.8571 63.6709 11.786 63.5288 11.7327C63.3866 11.6794 63.2401 11.6528 63.0891 11.6528C62.8137 11.6528 62.5961 11.7461 62.4362 11.9326C62.2763 12.1103 62.1963 12.359 62.1963 12.6788V13.3983H64.0751V14.4376H62.1963V20.0605H60.6773V14.4376ZM72.9973 20.1938C72.1445 20.1938 71.3983 19.9984 70.7588 19.6075C70.1281 19.2167 69.6395 18.6615 69.2931 17.9419C68.9466 17.2135 68.7734 16.3652 68.7734 15.397C68.7734 14.4198 68.9466 13.5715 69.2931 12.852C69.6395 12.1325 70.1325 11.5773 70.7721 11.1864C71.4117 10.7956 72.1623 10.6001 73.0239 10.6001C73.7435 10.6001 74.3742 10.7378 74.916 11.0132C75.4579 11.2886 75.8576 11.675 76.1152 12.1724L75.1559 13.0385C74.6762 12.319 73.97 11.9592 73.0373 11.9592C72.2111 11.9592 71.576 12.2568 71.1319 12.852C70.6877 13.4383 70.4656 14.2866 70.4656 15.397C70.4656 16.4985 70.6833 17.3468 71.1185 17.9419C71.5538 18.5371 72.1756 18.8347 72.984 18.8347C73.97 18.8347 74.6939 18.4705 75.1559 17.7421L76.1152 18.6082C75.8576 19.1145 75.4579 19.5054 74.916 19.7807C74.3742 20.0561 73.7346 20.1938 72.9973 20.1938ZM80.7175 20.1938C79.6693 20.1938 78.8432 19.8873 78.2391 19.2744C77.644 18.6526 77.3464 17.8043 77.3464 16.7294C77.3464 15.6546 77.644 14.8107 78.2391 14.1978C78.8432 13.576 79.6693 13.265 80.7175 13.265C81.7657 13.265 82.5874 13.576 83.1825 14.1978C83.7866 14.8107 84.0886 15.6546 84.0886 16.7294C84.0886 17.8043 83.7866 18.6526 83.1825 19.2744C82.5874 19.8873 81.7657 20.1938 80.7175 20.1938ZM80.7175 19.0612C81.2949 19.0612 81.7479 18.8569 82.0766 18.4483C82.4053 18.0308 82.5696 17.4578 82.5696 16.7294C82.5696 16.001 82.4053 15.4325 82.0766 15.0239C81.7479 14.6064 81.2949 14.3976 80.7175 14.3976C80.1401 14.3976 79.6871 14.6064 79.3584 15.0239C79.0297 15.4325 78.8654 16.001 78.8654 16.7294C78.8654 17.4578 79.0297 18.0308 79.3584 18.4483C79.6871 18.8569 80.1401 19.0612 80.7175 19.0612ZM85.771 15.0239C85.771 14.2688 85.7577 13.727 85.731 13.3983H87.1568C87.1923 13.7447 87.2101 14.1356 87.2101 14.5708V14.7041H87.25C87.4188 14.2599 87.7075 13.9091 88.1161 13.6515C88.5247 13.3938 88.9955 13.265 89.5285 13.265C89.6884 13.265 89.8217 13.2784 89.9283 13.305V14.5042C89.8394 14.4865 89.7195 14.4776 89.5685 14.4776C89.151 14.4776 88.7646 14.5931 88.4093 14.824C88.0628 15.0461 87.7875 15.3526 87.5832 15.7434C87.3788 16.1343 87.2767 16.5562 87.2767 17.0092V20.0605H85.771V15.0239ZM91.2852 15.1305C91.2852 14.5975 91.263 14.0201 91.2186 13.3983H92.6443C92.6709 13.6914 92.6843 14.0023 92.6843 14.331H92.7109C92.9152 13.9935 93.1995 13.7314 93.5637 13.5449C93.9368 13.3583 94.3409 13.265 94.7762 13.265C95.629 13.265 96.2996 13.576 96.7882 14.1978C97.2768 14.8107 97.521 15.6546 97.521 16.7294C97.521 17.8043 97.2723 18.6526 96.7749 19.2744C96.2774 19.8873 95.5979 20.1938 94.7362 20.1938C94.301 20.1938 93.9145 20.1183 93.577 19.9673C93.2394 19.8074 92.9907 19.5897 92.8308 19.3144H92.7908V23.2851H91.2852V15.1305ZM94.4298 19.0612C94.9272 19.0612 95.3136 18.8525 95.589 18.435C95.8733 18.0175 96.0154 17.4356 96.0154 16.6894C96.0154 15.9522 95.8821 15.3925 95.6156 15.0106C95.3492 14.6286 94.9583 14.4376 94.4431 14.4376C93.9545 14.4376 93.5548 14.5886 93.2439 14.8906C92.9419 15.1927 92.7908 15.5791 92.7908 16.0499V17.369C92.7908 17.8576 92.9463 18.2617 93.2572 18.5815C93.5681 18.9013 93.959 19.0612 94.4298 19.0612ZM109.938 15.0772V20.0605H108.699L108.513 19.5142C107.926 19.9673 107.207 20.1938 106.354 20.1938C105.546 20.1938 104.848 20.0028 104.262 19.6208C103.676 19.2389 103.227 18.6881 102.916 17.9686C102.606 17.2491 102.45 16.3919 102.45 15.397C102.45 14.4287 102.623 13.5848 102.97 12.8653C103.316 12.1369 103.805 11.5773 104.435 11.1864C105.075 10.7956 105.821 10.6001 106.674 10.6001C107.411 10.6001 108.055 10.7378 108.606 11.0132C109.157 11.2886 109.561 11.675 109.819 12.1724L108.872 13.0385C108.65 12.6832 108.353 12.4167 107.98 12.2391C107.607 12.0525 107.18 11.9592 106.701 11.9592C105.883 11.9592 105.253 12.2568 104.809 12.852C104.364 13.4471 104.142 14.2955 104.142 15.397C104.142 16.534 104.351 17.409 104.769 18.0219C105.186 18.6259 105.781 18.928 106.554 18.928C107.238 18.928 107.811 18.7636 108.273 18.435V16.2764H106.194V15.0772H109.938ZM112.876 12.4922C112.574 12.4922 112.329 12.4123 112.143 12.2524C111.965 12.0836 111.876 11.8615 111.876 11.5862C111.876 11.3019 111.965 11.0798 112.143 10.9199C112.329 10.7512 112.574 10.6668 112.876 10.6668C113.178 10.6668 113.418 10.7512 113.595 10.9199C113.782 11.0798 113.875 11.3019 113.875 11.5862C113.875 11.8615 113.782 12.0836 113.595 12.2524C113.418 12.4123 113.178 12.4922 112.876 12.4922ZM112.116 13.3983H113.635V20.0605H112.116V13.3983ZM117.788 20.1938C117.353 20.1938 116.962 20.105 116.615 19.9273C116.278 19.7408 116.011 19.4876 115.816 19.1678C115.629 18.848 115.536 18.4883 115.536 18.0885C115.536 17.4134 115.798 16.8938 116.322 16.5296C116.855 16.1653 117.606 15.9832 118.574 15.9832H119.733V15.6768C119.733 15.277 119.618 14.9706 119.387 14.7574C119.156 14.5442 118.832 14.4376 118.414 14.4376C118.015 14.4376 117.637 14.5131 117.282 14.6641C116.935 14.8062 116.647 15.015 116.416 15.2904L115.723 14.3976C116.06 14.0334 116.469 13.7536 116.949 13.5582C117.428 13.3628 117.935 13.265 118.468 13.265C119.338 13.265 120.018 13.4738 120.506 13.8913C120.995 14.2999 121.239 14.8773 121.239 15.6235V18.6881C121.239 18.8747 121.257 19.1012 121.292 19.3677C121.328 19.6253 121.368 19.8562 121.412 20.0605H120.067C119.987 19.874 119.929 19.5942 119.893 19.2211H119.867C119.351 19.8696 118.659 20.1938 117.788 20.1938ZM118.134 19.0479C118.588 19.0479 118.965 18.928 119.267 18.6881C119.578 18.4394 119.733 18.1374 119.733 17.7821V17.0092H118.534C118.046 17.0092 117.668 17.1025 117.402 17.289C117.144 17.4756 117.015 17.7421 117.015 18.0885C117.015 18.3905 117.113 18.6259 117.308 18.7947C117.504 18.9635 117.779 19.0479 118.134 19.0479ZM123.217 15.1305C123.217 14.3044 123.199 13.727 123.163 13.3983H124.576C124.62 13.8158 124.642 14.2066 124.642 14.5708H124.669C124.838 14.1711 125.126 13.8558 125.535 13.6248C125.944 13.385 126.397 13.265 126.894 13.265C127.667 13.265 128.249 13.5227 128.64 14.0379C129.031 14.5442 129.226 15.2993 129.226 16.303V20.0605H127.707V16.2897C127.707 15.6679 127.605 15.2104 127.401 14.9173C127.205 14.6241 126.89 14.4776 126.454 14.4776C125.939 14.4776 125.522 14.6597 125.202 15.0239C124.882 15.3792 124.722 15.8411 124.722 16.4096V20.0605H123.217V15.1305ZM133.858 20.1938C133.209 20.1938 132.698 20.0072 132.325 19.6342C131.961 19.2522 131.779 18.7281 131.779 18.0619V14.5309H130.58V13.3983H131.779V11.6661L133.245 11.2264H133.298V13.3983H135.217V14.5309H133.298V17.862C133.298 18.2617 133.382 18.5593 133.551 18.7547C133.729 18.9413 134 19.0346 134.364 19.0346C134.755 19.0346 135.074 18.9813 135.323 18.8747L135.403 19.9406C135.039 20.1094 134.524 20.1938 133.858 20.1938Z" fill="black"/>
</svg>
