<svg width="42" height="42" viewBox="0 0 42 42" fill="none" xmlns="http://www.w3.org/2000/svg">
<path fill-rule="evenodd" clip-rule="evenodd" d="M28 16C28 22.6275 22.6275 28 16 28C9.37259 28 4 22.6275 4 16C4 9.37259 9.37259 4 16 4C22.6275 4 28 9.37259 28 16ZM25.8115 28.6397C23.1019 30.7459 19.6973 32 16 32C7.16344 32 0 24.8365 0 16C0 7.16344 7.16344 0 16 0C24.8365 0 32 7.16344 32 16C32 19.6973 30.7459 23.1019 28.6397 25.8112L41.4144 38.5859L38.5859 41.4141L25.8115 28.6397Z" fill="#080341"/>
</svg>
